<?xml version="1.0" encoding="UTF-8" standalone="no"?><!-- Generator: Gravit.io -->
<svg xmlns="http://www.w3.org/2000/svg"
     style="isolation:isolate" viewBox="0 0 595.276 566.929" width="595.276pt" height="566.929pt"><g><g><path d=" M 144 104 C 144 95.168 136.832 88 128 88 L 32 88 C 23.168 88 16 95.168 16 104 C 16 112.832 23.168 120 32 120 L 128 120 C 136.832 120 144 112.832 144 104 Z " fill="rgb(1,213,251)"/><path d=" M 128 152 L 64 152 C 55.168 152 48 159.168 48 168 C 48 176.832 55.168 184 64 184 L 128 184 C 136.832 184 144 176.832 144 168 C 144 159.168 136.832 152 128 152 Z " fill="rgb(1,213,251)"/><path d=" M 128 216 L 96 216 C 87.168 216 80 223.168 80 232 C 80 240.832 87.168 248 96 248 L 128 248 C 136.832 248 144 240.832 144 232 C 144 223.168 136.832 216 128 216 Z " fill="rgb(1,213,251)"/></g><path d=" M 525.728 207.776 L 477.728 127.776 C 474.848 122.944 469.632 120 464 120 L 352 120 C 343.168 120 336 127.168 336 136 L 336 296 C 336 304.832 343.168 312 352 312 L 512 312 C 520.832 312 528 304.832 528 296 L 528 216 C 528 213.088 527.232 210.24 525.728 207.776 Z " fill="rgb(0,109,239)"/><path d=" M 400 152 L 454.944 152 L 493.344 216 L 400 216 L 400 152 Z " fill="rgb(250,250,250)"/><path d=" M 352 56 L 128 56 C 119.168 56 112 63.168 112 72 L 112 296 C 112 304.832 119.168 312 128 312 L 368 312 L 368 72 C 368 63.168 360.832 56 352 56 Z " fill="rgb(1,213,251)"/><circle vector-effect="non-scaling-stroke" cx="448" cy="296" r="32" fill="rgb(250,250,250)"/><path d=" M 448 344 C 421.536 344 400 322.464 400 296 C 400 269.536 421.536 248 448 248 C 474.464 248 496 269.536 496 296 C 496 322.464 474.464 344 448 344 Z  M 448 280 C 439.2 280 432 287.2 432 296 C 432 304.8 439.2 312 448 312 C 456.8 312 464 304.8 464 296 C 464 287.2 456.8 280 448 280 Z " fill="rgb(69,90,100)"/><path d=" M 368 312 L 128 312 C 119.168 312 112 304.832 112 296 L 112 248 L 368 248 L 368 312 Z " fill="rgb(0,109,239)"/><circle vector-effect="non-scaling-stroke" cx="224" cy="296" r="32" fill="rgb(250,250,250)"/><path d=" M 224 344 C 197.536 344 176 322.464 176 296 C 176 269.536 197.536 248 224 248 C 250.464 248 272 269.536 272 296 C 272 322.464 250.464 344 224 344 Z  M 224 280 C 215.168 280 208 287.2 208 296 C 208 304.8 215.168 312 224 312 C 232.832 312 240 304.8 240 296 C 240 287.2 232.832 280 224 280 Z " fill="rgb(69,90,100)"/></g><g><path d=" M 220.6 444.5 C 222.3 444.5 223.2 444.2 224.1 442.1 L 236.9 413 L 236.9 457.6 C 236.9 459.1 237.8 460 239.3 460 L 252.3 460 C 253.8 460 254.7 459.1 254.7 457.6 L 254.7 392.4 C 254.7 391.1 253.7 390 252.2 390 L 231.4 390 C 229.9 390 228.7 390.3 227.9 392.2 L 215.9 421 L 204 392.2 C 203.2 390.3 202 390 200.5 390 L 179.2 390 C 177.7 390 176.7 391.1 176.7 392.4 L 176.7 457.6 C 176.7 459.1 177.6 460 179.1 460 L 192.1 460 C 193.6 460 194.5 459.1 194.5 457.6 L 194.5 413 L 207.3 442.1 C 208.2 444.2 209.1 444.5 210.8 444.5 L 220.6 444.5 Z  M 279.6 412.6 C 279.6 411.4 278.4 410.5 277.2 410.5 L 264.7 410.5 C 263.5 410.5 262.3 411.4 262.3 412.6 L 262.3 440.7 C 262.3 453.1 269.9 461.5 282.2 461.5 C 289.4 461.5 292.7 459 295.8 456.1 L 295.8 457.9 C 295.8 459.1 297 460 298.2 460 L 310.8 460 C 312.1 460 313.1 459 313.1 457.7 L 313.1 412.8 C 313.1 411.5 312.1 410.5 310.8 410.5 L 298.2 410.5 C 297 410.5 295.8 411.4 295.8 412.6 L 295.8 438.1 C 295.8 443.2 293.2 446.9 287.7 446.9 C 281.8 446.9 279.6 443 279.6 437.8 L 279.6 412.6 Z  M 352.9 460 C 354.5 460 355.5 458.9 355.9 457.6 L 370.1 414.4 C 370.8 412.3 369.7 410.5 367.7 410.5 L 355.1 410.5 C 353.2 410.5 352.5 411.7 352.2 412.9 L 344.3 442.4 L 335.8 412.9 C 335.4 411.7 334.7 410.5 332.8 410.5 L 319.5 410.5 C 317.5 410.5 316.4 412.3 317.1 414.4 L 331.3 457.6 C 331.7 458.9 332.7 460 334.3 460 L 352.9 460 Z  M 382.8 407.2 C 388.1 407.2 392.7 402.6 392.7 397.3 C 392.7 392 388.1 387.4 382.8 387.4 C 377.5 387.4 372.9 392 372.9 397.3 C 372.9 402.6 377.5 407.2 382.8 407.2 Z  M 389.1 460 C 390.4 460 391.4 458.9 391.4 457.6 L 391.4 412.8 C 391.4 411.5 390.4 410.5 389.1 410.5 L 376.5 410.5 C 375.2 410.5 374.1 411.5 374.1 412.8 L 374.1 457.6 C 374.1 458.9 375.2 460 376.5 460 L 389.1 460 Z  M 403.5 444.9 C 403.5 456.6 412.4 461.3 421.4 461.3 C 427.7 461.3 433.7 459.2 437.2 455.3 C 438.4 454.1 438.5 452.7 437.5 451.2 L 433.2 444.3 C 432.1 442.7 430.4 442.7 428.7 443.8 C 427.1 444.9 425.6 445.2 424.7 445.2 C 423.9 445.2 420.8 445 420.8 440.6 L 420.8 424.8 L 434.2 424.8 C 435.5 424.8 436.6 423.7 436.6 422.4 L 436.6 412.8 C 436.6 411.5 435.5 410.5 434.2 410.5 L 420.8 410.5 L 420.8 398.3 C 420.8 397 419.8 396 418.5 396 L 405.9 396 C 404.6 396 403.5 397 403.5 398.3 L 403.5 410.5 L 397.4 410.5 C 396.1 410.5 395.1 411.5 395.1 412.8 L 395.1 422.4 C 395.1 423.7 396.1 424.8 397.4 424.8 L 403.5 424.8 L 403.5 444.9 Z " fill="rgb(1,213,251)" vector-effect="non-scaling-stroke" stroke-width="30" stroke="rgb(0,109,239)" stroke-linejoin="miter" stroke-linecap="square" stroke-miterlimit="3"/><path d=" M 220.6 444.5 C 222.3 444.5 223.2 444.2 224.1 442.1 L 236.9 413 L 236.9 457.6 C 236.9 459.1 237.8 460 239.3 460 L 252.3 460 C 253.8 460 254.7 459.1 254.7 457.6 L 254.7 392.4 C 254.7 391.1 253.7 390 252.2 390 L 231.4 390 C 229.9 390 228.7 390.3 227.9 392.2 L 215.9 421 L 204 392.2 C 203.2 390.3 202 390 200.5 390 L 179.2 390 C 177.7 390 176.7 391.1 176.7 392.4 L 176.7 457.6 C 176.7 459.1 177.6 460 179.1 460 L 192.1 460 C 193.6 460 194.5 459.1 194.5 457.6 L 194.5 413 L 207.3 442.1 C 208.2 444.2 209.1 444.5 210.8 444.5 L 220.6 444.5 Z  M 279.6 412.6 C 279.6 411.4 278.4 410.5 277.2 410.5 L 264.7 410.5 C 263.5 410.5 262.3 411.4 262.3 412.6 L 262.3 440.7 C 262.3 453.1 269.9 461.5 282.2 461.5 C 289.4 461.5 292.7 459 295.8 456.1 L 295.8 457.9 C 295.8 459.1 297 460 298.2 460 L 310.8 460 C 312.1 460 313.1 459 313.1 457.7 L 313.1 412.8 C 313.1 411.5 312.1 410.5 310.8 410.5 L 298.2 410.5 C 297 410.5 295.8 411.4 295.8 412.6 L 295.8 438.1 C 295.8 443.2 293.2 446.9 287.7 446.9 C 281.8 446.9 279.6 443 279.6 437.8 L 279.6 412.6 Z  M 352.9 460 C 354.5 460 355.5 458.9 355.9 457.6 L 370.1 414.4 C 370.8 412.3 369.7 410.5 367.7 410.5 L 355.1 410.5 C 353.2 410.5 352.5 411.7 352.2 412.9 L 344.3 442.4 L 335.8 412.9 C 335.4 411.7 334.7 410.5 332.8 410.5 L 319.5 410.5 C 317.5 410.5 316.4 412.3 317.1 414.4 L 331.3 457.6 C 331.7 458.9 332.7 460 334.3 460 L 352.9 460 Z  M 382.8 407.2 C 388.1 407.2 392.7 402.6 392.7 397.3 C 392.7 392 388.1 387.4 382.8 387.4 C 377.5 387.4 372.9 392 372.9 397.3 C 372.9 402.6 377.5 407.2 382.8 407.2 Z  M 389.1 460 C 390.4 460 391.4 458.9 391.4 457.6 L 391.4 412.8 C 391.4 411.5 390.4 410.5 389.1 410.5 L 376.5 410.5 C 375.2 410.5 374.1 411.5 374.1 412.8 L 374.1 457.6 C 374.1 458.9 375.2 460 376.5 460 L 389.1 460 Z  M 403.5 444.9 C 403.5 456.6 412.4 461.3 421.4 461.3 C 427.7 461.3 433.7 459.2 437.2 455.3 C 438.4 454.1 438.5 452.7 437.5 451.2 L 433.2 444.3 C 432.1 442.7 430.4 442.7 428.7 443.8 C 427.1 444.9 425.6 445.2 424.7 445.2 C 423.9 445.2 420.8 445 420.8 440.6 L 420.8 424.8 L 434.2 424.8 C 435.5 424.8 436.6 423.7 436.6 422.4 L 436.6 412.8 C 436.6 411.5 435.5 410.5 434.2 410.5 L 420.8 410.5 L 420.8 398.3 C 420.8 397 419.8 396 418.5 396 L 405.9 396 C 404.6 396 403.5 397 403.5 398.3 L 403.5 410.5 L 397.4 410.5 C 396.1 410.5 395.1 411.5 395.1 412.8 L 395.1 422.4 C 395.1 423.7 396.1 424.8 397.4 424.8 L 403.5 424.8 L 403.5 444.9 Z " fill="rgb(1,213,251)"/></g></svg>
